# xmcd
# 
# Track frame offsets:
#     150
#     20510
#     47130
#     69000
#     87000
#     128120
#     152860
#     191802
#     218247
#     258640
#     283762
# 
# Disc length: 4256
# 
# Revision: 6
# Processed by: cddbd v1.5.2PL0 Copyright (c) Steve Scherf et al.
# Submitted via: fre:ac v1.0.27
# 
DISCID=9d109e0b
DTITLE=Frumpy - Live NinetyFive
DYEAR=1995
DGENRE=Blues
TTITLE0=Loverman
TTITLE1=Get Together
TTITLE2=Amazone Dreams
TTITLE3=In And Out of Studios
TTITLE4=How The Gipsy was Born
TTITLE5=When I Fall In Love
TTITLE6=Everyday Song
TTITLE7=Come On
TTITLE8=Friends
TTITLE9=Dreams Come True
TTITLE10=Backwater Blues
EXTD=YEAR: 1995
EXTT0=
EXTT1=
EXTT2=
EXTT3=
EXTT4=
EXTT5=
EXTT6=
EXTT7=
EXTT8=
EXTT9=
EXTT10=
PLAYORDER=
